# xmcd
#
# Track frame offsets:
#	150
#	18944
#	40469
#	59254
#	76013
#	92316
#	108014
#	129243
#	147900
#	158462
#	185173
#
# Disc length: 2621 seconds
#
# Revision: 0
# Processed by: cddbd v1.4PL0 Copyright (c) Steve Scherf et al.
# Submitted via: dBpowerAMP V4.0
#
DISCID=7a0a3b0b
DTITLE=Ted Pearce and the Nomadic Farmers - Ted Pearce and the Nomadic Farmers
DYEAR=1998
DGENRE=Blues
TTITLE0=since you came into my life
TTITLE1=into the fire
TTITLE2=through it all
TTITLE3=choose
TTITLE4=homecoming
TTITLE5=going to see my Lord
TTITLE6=love will conquer all
TTITLE7=papa said
TTITLE8=high on Jesus
TTITLE9=an example
TTITLE10=trust Him
EXTD=Christian Blues
EXTT0=
EXTT1=
EXTT2=
EXTT3=
EXTT4=
EXTT5=
EXTT6=
EXTT7=
EXTT8=
EXTT9=
EXTT10=
PLAYORDER=
